/* XPM */
static char *result[] = {
/* columns rows colors chars-per-pixel */
"64 64 164 2 ",
"   c #9C6F4A",
".  c #8F765C",
"X  c #9E7D5A",
"o  c #AA794F",
"O  c #A27750",
"+  c #A57B53",
"@  c #AB7E55",
"#  c #A47E5A",
"$  c #967E63",
"%  c #9A7F62",
"&  c #9A805D",
"*  c #A78155",
"=  c #AC8355",
"-  c #A4825D",
";  c #AC845B",
":  c #AD895D",
">  c #B18555",
",  c #B68857",
"<  c #B88956",
"1  c #B1865B",
"2  c #B38A5C",
"3  c #BA8D5C",
"4  c #B7915E",
"5  c #BB915E",
"6  c #9C8464",
"7  c #94836A",
"8  c #9C866B",
"9  c #9E886B",
"0  c #978773",
"q  c #A58663",
"w  c #AC8661",
"e  c #A48A65",
"r  c #AC8A64",
"t  c #A1856A",
"y  c #A38B6C",
"u  c #AA8B6B",
"i  c #B38D63",
"p  c #B98E61",
"a  c #B18E69",
"s  c #AD926D",
"d  c #B59265",
"f  c #BB9464",
"g  c #BD9866",
"h  c #B4946C",
"j  c #BB966A",
"k  c #B7986E",
"l  c #BC9A6C",
"z  c #A28D73",
"x  c #AA8E70",
"c  c #A59175",
"v  c #AC9374",
"b  c #A6947B",
"n  c #AB967B",
"m  c #AE9A7D",
"M  c #B29573",
"N  c #B89770",
"B  c #B59B74",
"V  c #BC9C73",
"C  c #B19679",
"Z  c #B49C7C",
"A  c #BA9E7C",
"S  c #BEA175",
"D  c #B6A17E",
"F  c #BDA27C",
"G  c #C1915D",
"H  c #C19462",
"J  c #C39A65",
"K  c #C99A64",
"L  c #C29D6C",
"P  c #C99E6D",
"I  c #C19E72",
"U  c #C4A16E",
"Y  c #C8A26A",
"T  c #C3A374",
"R  c #C9A673",
"E  c #C6A876",
"W  c #CBA976",
"Q  c #C2A57B",
"!  c #C8A77D",
"~  c #C5AA7D",
"^  c #CAAC7C",
"/  c #D0AC7B",
"(  c #CDB17E",
")  c #D1B27E",
"_  c #AD9C83",
"`  c #A39B8F",
"'  c #AD9F88",
"]  c #B29E83",
"[  c #AEA18C",
"{  c #B5A184",
"}  c #BCA483",
"|  c #BEA985",
" . c #B5A58C",
".. c #BAA689",
"X. c #B7A98F",
"o. c #BDAA8C",
"O. c #B4A792",
"+. c #B6A994",
"@. c #BCAC93",
"#. c #B5AC9A",
"$. c #BBAE99",
"%. c #BFB097",
"&. c #BCB19D",
"*. c #BCB4A3",
"=. c #BEB8A6",
"-. c #BEB6A8",
";. c #C1A683",
":. c #C4AB84",
">. c #CAAE83",
",. c #C3AD8B",
"<. c #C9AE8A",
"1. c #C7B085",
"2. c #CBB285",
"3. c #C6B18C",
"4. c #CBB48B",
"5. c #CEB98D",
"6. c #D1B484",
"7. c #D4B986",
"8. c #D9B986",
"9. c #D1B68A",
"0. c #D3BA8C",
"q. c #D9BD8C",
"w. c #C2AE92",
"e. c #C4B293",
"r. c #CAB693",
"t. c #CDBA93",
"y. c #C4B59B",
"u. c #C9B79A",
"i. c #C6B99E",
"p. c #CCBB9C",
"a. c #D1B792",
"s. c #D2BC93",
"d. c #D9BE92",
"f. c #D2BE9A",
"g. c #C1B7A2",
"h. c #C5BAA4",
"j. c #CABCA3",
"k. c #C5BCAA",
"l. c #C9BFAA",
"z. c #D1BFA1",
"x. c #C4BEB0",
"c. c #D8C08E",
"v. c #D5C196",
"b. c #DAC295",
"n. c #D5C29C",
"m. c #DAC59B",
"M. c #DDC89E",
"N. c #CCC0A6",
"B. c #CBC2AC",
"V. c #D3C3A3",
"C. c #D9C6A3",
"Z. c #DBC9A4",
"A. c #D3C6AB",
"S. c #D6C9AC",
"D. c #D9CAAC",
"F. c #C5C0B3",
"G. c #CCC4B3",
"H. c #CFC8B7",
"J. c #CFC8B8",
"K. c #D1C7B3",
"L. c #D3C9B3",
"P. c #D9CCB2",
"I. c #D2CBBA",
"U. c #DBCFB8",
/* pixels */
"F F s e Z Z v M y B v s { Z e c n n ] ] Z Z ] Z b c n A M M ] Z ..n _ @.@.] { O.#._  .h.O.' +.&.l.y.@. .X._ $.G.h.$.] t y s F ;.",
"{ b z z b c '  .+.o.Z c z c  .b z _ +. .] } ,. .z b n n ] n z ] ,. .b  . .8 7 [ O.O.O.&.*.O.' #.*.*.[ _ X.' +.g.#.+.@.0 '  .} :.",
"| :.:.y.e.e.w.,.e.r.e.e.@.,.3.,.y.y.w.....,...o.] ......e.@.e.e.o.,.e.| X.o.+. .O. ...+.@.'  .` _ _ _ _ ]  .] n n Z b v v v n F ",
"A } :.,.1.3.,.:.:.,.D o.w. .| | ,.w.,.w.,.,.,.w...} .... .} .. . .o. . .%.@.+.[ #.+. .+.O.X.+.+.O. . .' _ n ' ' ] ] ] } m v Z ] ",
"} F ;.1.| F F F F F F | @.} } } ;.] ;.;.} } ;.,.] C ] A ] ] ] } ]  . .+. .O.+.+.#.*.#.$.*.$.#.$.O.#.O.O.O.O.+.y.%.o.{ { Z { D { ",
"| | :.} } } } F F | | ..| } } A ] ] ,.] ;.] ;.;.w.;...;.,.<.,.<.,.w.w.$.&.y.%.@.*.#.*.g.g.*.*.#.*.*.*.*.$.$.#.O.X. .{ [ ] B Z Z ",
"F Z } } F F } | F F F F } } A C Z } ;.} I ] ] ;.,.] ] ......,.] ] X.+.y.y.&.&.*.*.*.-.*.k.-.-.-.*.k.*.*.*.#.*.*.$.+.%.#.X.} Z _ ",
"1.:.:.4.,.:.1.1.1.3.,.,.3.:.:.:.;.;.;.:.:.;.] ,.w...;.,...;.....w.$.$.%.+.#.#.&.-.-.*.k.k.k.k.k.-.*.g.k.g.*.*.#.&.$.+.+.$.X.{ { ",
"4.:.,.r.3.,.3.4.3.3.3.4.e.3.3.1.:.<.<.<.<.;.w.,.w.w.w.w.w.<.u.<.w.y.w.@.y.y.+.h.h.h.h.l.l.G.l.j.j.&.y.*.&.&.N.%.%.%.&.%.X. .%.+.",
"@.,.,.e.3.| ,.@.3.1.o.%.y.e.o.} ] ] ..,.;.@.w...y.w.w.w...o.<...w.y.@.e.y.j.h.h.l.x.x.l.l.l.k.k.g.k.k.=.h.=.N.=.=.&.%.+.X.X.o.@.",
"o.e.e.e.e.o.o.e.%.3.e.u.h.r.3.| ,.,...w.w.w...e.w.w.o.o...w.@.w.e.j.j.j.j.h.l.l.l.x.x.l.B.l.x.k.k.B.h.N.h.=.=.=.N.=.*.&.&.&.%.&.",
"X.e.o.| w.e.u.r.r.3.,.e.,.,.4.1.;.;.<.r.;.} ;.] ;.w.w.w.u.y.u.u.h.j.j.y.j.j.j.l.K.l.l.K.B.G.K.G.F.B.F.G.H.G.F.k.k.N.B.h.N.N.i.@.",
"e.e.@.e.o.e.,.,.3.F | o.,.:.:.,.<.....<.;.w.;.....u.a.a.a.a.a.z.t.f.z.z.z.z.z.j.l.K.K.l.l.G.G.G.B.F.G.F.x.F.x.=.=.=.&.&.=.h.&.&.",
",.y.j.y.e._ { o.o...o.o.,.o.,.,...,.w.<.w.w.$.<.;.;.;.<.;.<.<.<.e.w.j.u.z.j.l.l.l.l.K.J.G.J.J.J.G.G.I.G.k.G.k.*.k.=.=.N.#.&.N.N.",
"o.v b { Z v B Z Z m Z Z A } F F } ;...;.} ] ] } ;.<.w.y.g.u.w.u.u.y.j.j.j.l.l.l.l.l.L.I.K.K.K.J.I.I.H.H.H.H.H.G.G.G.H.N.#.B.N.&.",
"| ..} c v v A B Z o.X.3.| F } } I ;.] I ;.;.} ;.I ] w.u.u.u.u.u.u.j.u.u.u.j.j.h.l.h.l.l.l.l.l.l.B.k.B.B.=.N.=.N.=.h.g.g.N.N.h.N.",
"e.p.t.l l k l ( :.t.p.t.F F :.4.~ V ^ ! ! ! } :.;.;.u.z.z.u.z.z.u.u.u.u.j.j.j.j.N.N.B.B.B.B.B.B.B.N.N.N.B.N.g.i.&.N.&.N.N.N.N.y.",
"| F B : f = 2 s l l k S S k f T l k A I V F k M M % M % x % % _ ] _ ] ] _ O.+.O.#.#.$.&.&.k.l.k.h.N.=.g.y.y.$.%.y.&.&.&.%.N.i.%.",
"f - s : * , 2 , 2 l l l l U g P J L T I P I j M ;.I ] } ;.<.y.y.h.y.h.j.j.l.K.K.H.H.I.J.I.U.I.I.J.G.B.B.*.&.*.B.N.B.B.N.%.N.N.| ",
"2 : a d d , , 4 5 g g f g g f U H J T I P P ! >.I # H I ] C { w.@.} ,.w.$.u.l.h.h.B.B.B.G.G.G.K.G.B.F.N.B.N.B.k.N.=.B.N.v.N.N.%.",
"2 * : l S = = > 2 = = , 2 2 2 2 > 2 J f i p j i @ P I P I I I I ! I ;.I ;.;.e.y.y.j.i.@.g.h.j.l.B.B.B.j.k.B.k.*.=.=.k.k.=.N.v.&.",
"g * * r S 2 > 2 2 ; , = = = > 3 1 1 p p p 1 j = a I <.;.;.;.;.;.} <.<.;.;.;.<.<.e.e.y.h.y.g.w.w.y.j.i.y.g.k.B.j.$.X.y.&.%.o.{ D ",
"k : : l F 4 : 2 : * ; = * : ; = 1 1 1 i i i j L H a @ # H # N } ] ;.} ;.;.;.;.;.,.,.| w.@.w.w.e.&.e.D @.y. .X.o.X.D D X.m | D D ",
"k : * S 3.d : d 4 * * ; : p 2 = ; p d N p i d i @ a a @ # I L ;.;.I ] I Q ] ;.<.,.,.| ,.,.,.w.w...{ _ } o.{ ] { { D D | %.| | o.",
"F r 4 F n.| g l l 5 4 4 2 4 4 f f f V l j p p p i N V w # @ a h P I I I I I ] ;.;.w.,.o...] ....,.{ ]  .[ D } Z D D %.N.o.o.o.n.",
"V.~ S v.N.N.1.1.2.l g 5 5 G G 5 3 f l P P J 2 + + M ! N A H p @ @ L <.a.<.<.a.a.z.z.u.z.,.,.<.e.e.y.,.w.e.o...o.%.o.v.B.N.v.3.V.",
"5.k d S 3.4.:.5.E g U 3 3 G G J H G K K P P G @ i N I p p w @ @ @ I a.z.a.d.a.z.A.A.A.z.z.z.z.;.e.A.j.p.y.i.r.j.v.V.%.v.v.| F c.",
"3.k d s 4.r.S 2.F g g 5 f f f f 5 d f f f G @ o O w i 1 @ + O # o # h I L ;.>.;.>.>.:.;.V I ] M A A } | F e.D D %.D k B D B B o.",
"t.S r k e.v.S F ~ S g d 4 4 4 4 3 2 3 f 3 5 > @ a d I H @ @ @ @ @ @ @ @ w H N h 2 w i p : d M h d 1 * w r M & & v e s n & e B | ",
"~ k g E 3.p.~ F S ~ l l d f j g f 3 3 2 2 3 3 a ;.;.N L H @ @ @ # I I I P ;.I a ] ] A r.<.r.4.! ,.A.V.N.N.S.S.S.B.N.c.| %.y.e.v.",
"| F k s B u.:.4.3.1.S S f U E l d 3 d d i L p a ] x @ a L @   O O   @ @ @ I I @ u ,.u N A i j * : ,.e.y.N.N.N.N.N.o.| %.| | y.| ",
"p.N.j.p.p.N.Q 1.1.~ ~ S j S T T g j k L l l i k I x a a N @ O # a O O @ h I I a w N d # - = i i N F :.r.@.| S D D e | N.D D y.| ",
"u.A.U.L.D.A.j.r.Q V l k l T E E l k j j j N i r M o.<.I N p @ a M @ @ H H I I # N I V A ;.I V A ;.,.,.e.w.} } A B V S 1.:.F | :.",
"r.z.l.l.K.l.l.l.j.e.l 3 G J E U J P J 3 H H L I ] w.] % q # w ; h # # # # # # # X - u # u u w # r q q # u r q e y t 9 9 6 6 6 9 ",
":.w.,.w.w.,.w. .@.o.k k l k k k i a I d I w # w # % u C x v M C ] C x # % % _ % 8 8 8 . . 9 $ % t c z % 9 c & 7 8 8 7 7 e & 8 8 ",
"Q e.y.u.e.g.j.j.j.r.2.2.2.5.5.v.^ I I I ! I L p @ H d I Q ! r.z.<.w.;.;.;.I ;.;.] { A Z C Z Z n X.O.] _ n ] v m Z M s k k s k k ",
"<.4.u.u.y.p.i.j.r.:.:.^ S 5.v.| ^ T ! l I ! P 1 p p I ;.<.;.4.f.a.<.;.I ;.P H M F F :.,.F } } ,.w.<.r.r.;.,.~ F l S F l k V S k ",
"4.r.p.p.u.V.p.V.r.s.n.n.t.v.n.v.a.9.0.0.9.s.9.W P R >.f.V.f.s.V.D.d.a.a.>.>.<.<.<.^ :.;.:.1.! 4.p.e.r.u.3.r.S j S S Q F S ~ 1.S ",
"4.:.w.3.r.n.t.v.v.5.v.n.v.v.n.N.v.2.v.m.C.Z.d.! P I 6.d.f.C.b.f.z.f.>.6./ R <.>.! :.>.:.2.4.3.2.a.<.<.4.1.:.V l S S S S ~ 3.:.~ ",
"s.3.4.r.t.t.v.t.1.1.t.r.3.v.V.v.2.F r.4.:.<.>.I P H P <.4.f.5.s.C.f.>.>.P / a.a.a.a.f.f.s.f.n.C.f.f.r.f.n.f.s.q.0.n.n.s.v.n.n.t.",
"2.2.1.5.5.4.3.2.( S S 2.1.v.N.v.! Q 4.2.F Q T S H H L <.a.s.9.<.6.<.! P I ! 4.4.9.4.2.>.T ;.~ :.1.F S D c.1.7.S S 1.^ ~ 1.e.4.~ ",
"5.2.( 9.( ^ T ~ E S E S ~ 5.v.v.( E 4.5.7.2.9.0.>.j I :.<.<.^ J L H J T E :.4.4.>.2.:.! T 4.2.4.v.( 1.c.v.2.c.( ( 5.5.5.v.n.v.4.",
"s.t.0.( W E ^ ( W ( c.v.v.V.Z.Z.s.0.n.C.Z.Z.m.q.6.! >.8.9.6.6./ / / ^ 6.6.9.d.s.9.0.9.9.6.s.v.v.v.v.c.v.c.4.c.( 5.v.5.5.5.v.5.v.",
"~ ~ l U 5 g g l 4 k ~ o.v.V.V.S.t.2.t.n.V.n.n.2.^ b.8.>.s.s.6.R ^ ^ ^ ! T ^ >.2.^ 2.^ ^ 6.4.:.2.5.F | c.1.F ( ( >.! 1.r.| 3.4.~ ",
"W c.( ) E Y S E g g 7.v.n.n.S.S.n.0.n.V.C.C.C.v.>.6.8.s.n.b.q.) / ) s.9.2.0.n.v.7.6.2.2.( 5.2.2.1.2.5.5.5.7.( 2.5.5.5.n.V.N.n.( ",
"4 F S S U 4 g g 4 l W c.v.m.M.C.v.c.b.M.M.M.Z.c.6.:.>.4.r.3.>.W P W q.9.7.7.7.q.7.9.s.7.7.q.7.4.v.1.1.v.v.( ( ~ 1.5.~ ~ 1.5.5.g ",
"d S s k F k d k k g S | t.r.r.t.>.T E >.6.4.v.v.9.4.<.I :.A L L J Y E T I ! :.^ ^ ^ ! 2.5.4.~ :.5.1.3.4.1.1.1.1.| 5.1.1.N.N.A.F ",
"o.v.S ~ c.5.5.( ~ 1.v.n.5.V.n.V.:.1.2.4.p.s.t.2.^ :.2.:.:.:.l H P U I T S r.1.,.! Q ~ F T :.Q T ~ 1.1.| F 3.4.| 1.3.| 3.N.N.r.c.",
"S S : : f k S ~ 1.5.v.V.N.V.N.V.:.S 2.3.p.f.f.Q ! ! T ! ! F I P J H g j I I ^ <.T U V S V T S S S d S T S B k s D F B F 5.F | 5.",
"( F < 4 5 : S ~ S S S 3.v.V.n.v.v.E :.s.p.s.0.Q >.7.6.q.b.d.6.<.8.8.q.q.s.d.9.7.6.7.q.0.a.s.s.q.5.7.s.q.v.v.v.c.c.v.5.v.M.V.v.v.",
"S S 4 g l ( 9.3.( S ( 1.v.V.n.M.b.s.d.Z.Z.m.m.d.^ V ,.t.s.t.9.4.0.4.0.4.0.s.f.r.2.5.s.2.t.C.v.5.5.t.n.4.o.c.c.n.n.V.A.N.A.S.B.N.",
"S ( S ( S 1.5.( 4.1.v.5.v.n.N.A.r.r.s.V.V.A.V.4.R :.s.D.n.r.n.b.s.s.s.s.n.V.D.D.n.n.m.m.n.n.s.0.m.v.m.v.v.n.n.V.S.L.D.V.S.S.A.V.",
"E S E E 1.v.s.~ S S 1.v.v.N.V.V.v.s.t.V.S.n.9.! h :.a.<.a.a.4.2.6.4.2.s.s.<.z.V.3.2.0.4.2.Q V :.2.2.4.2.( 1.c.5.v.3.c.F V.V.V.n.",
"g g 4 g S ( 5.2.( 2.c.v.v.v.v.n.s.q.s.s.f.a.s.9.>.Q u.<.V.V.s.a.0.0.9.4.p.z.A.A.t.n.f.>.e.r.1.~ 2.1.( F ~ S E F @.3.i.N.B.H.B.V.",
": : : & s : h B k S ~ S | v.n.Z.C.n.n.t.f.4.s.4.>.:.f.D.P.P.C.C.n.b.s.s.V.P.P.V.n.Z.f.s.v.V.f.2.9.5.( 1.5.t.F 3.N.i.N.i.A.H.N.%.",
"g 4 - 4 ~ S k h d S F 1.3.n.N.A.A.V.A.A.V.4.V.n.>.;.;.s.D.P.C.f.n.s.2.>.:.4.:.:.1.5.F F 4.r.2.2.E E E S S t.F F D B B D N.v.D B ",
"s.T l P W 2.! ~ 4.7.7.c.n.V.m.n.v.s.n.n.n.n.f.4.I I 4.r.f.C.M.v.b.q.6.d.b.d.d.b.9.s.d.q.b.b.q.6.6.) ( 7.7.0.c.9.v.| 4.v.v.v.4.5.",
"n.t.4.>.T t.V.n.4.E 5.n.n.S.S.n.C.m.C.C.C.S.C.f.r.:.>.p.2.2.4.2.9.q.b.m.s.9.a.<.^ E >.a.<.<.9.4.7.6.8.q.v.n.n.m.Z.n.v.v.N.N.v.n.",
"3.u.3.4.t.p.p.p.t.t.p.N.G.A.L.L.A.S.P.U.P.K.P.A.f.a.4.u.j.p.4.~ :.! ~ :.:.>.;.! ~ l S ~ <.~ ^ E ^ T E E ~ 1.e.p.3.n.%.X.p.y.%.o.",
"^ k h A } ,.4.N.p.o.e.3.r.1.N.n.p.F 3.A.V.P.r.V ;.N Q e.:.Q T g g f g T ! E ^ R E E ( ( W W ( R R U U g l T 5.2.V.%.c.v.n.V.t.4.",
"l d d d d S 1.D k S S S S :.n.n.p.S S F r.| S d d 1 k ^ ~ 1.U 5 5 5 J W I Y l U E U E J 5 5 5 < < < > , g E E ( 2.S ~ ( 5.v.1.F ",
"S g g S U R S S k S F F :.1.1.F ~ S F 1.1.~ :.E R T ^ ^ 9.v.9.R Y R W 2.2.6.2.^ 7.( 7.E W K 5 5 U f > , 5 g U R L T U ( 4.1.v.t.",
"E T T W U S S S S ( 1.v.5.1.( F S k S :.1.~ 1.s.v.q.b.v.M.b.b.c.c.c.b.b.v.M.m.b.m.v.v.c.b.c.) ( ( Y J J E 5.( ( ^ 2.5.v.v.n.N.t.",
"3.4.r.4.3.5.5.5.3.5.1.F F 1.F F } F } } } } :.u.r.e.3.! r.1.:.2.9.9.1.r.1.:.4.1.| :.~ :.~ F ..1.^ l l V F ~ ( | D S E F :.1.1.| "
};
