/* XPM */
static char *result[] = {
/* columns rows colors chars-per-pixel */
"64 64 58 1 ",
"  c #190E0D",
". c #1E110E",
"X c #25140F",
"o c #2D170F",
"O c #241514",
"+ c #2B1712",
"@ c #2D1914",
"# c #231A1C",
"$ c #2D1B19",
"% c #341C15",
"& c #3A1E15",
"* c #351E19",
"= c #391F18",
"- c #2E201E",
"; c #362016",
": c #3C2116",
"> c #36211A",
", c #3C231A",
"< c #3F281D",
"1 c #2C1F20",
"2 c #2F2121",
"3 c #322422",
"4 c #3E2620",
"5 c #3E2923",
"6 c #3F2D29",
"7 c #422317",
"8 c #4B2616",
"9 c #43261B",
"0 c #49271A",
"q c #45291D",
"w c #4B2B1E",
"e c #512D1E",
"r c #55311E",
"t c #442621",
"y c #492620",
"u c #452A22",
"i c #4B2D22",
"p c #432E2A",
"a c #482F28",
"s c #512F21",
"d c #582E22",
"f c #532B29",
"g c #4E3124",
"h c #4E3229",
"j c #533223",
"k c #5A3524",
"l c #5B3826",
"z c #533429",
"x c #5A3629",
"c c #56392C",
"v c #5B3A2A",
"b c #603624",
"n c #623A25",
"m c #623C2B",
"M c #64412F",
"N c #654230",
"B c #684433",
"V c #714A33",
/* pixels */
"seigd,<9sisxs9dkujujqug4ivcuuiguuicqhiagc4ixzzmgvjjuify99ew&,%*i",
"jkzw87@%ey0jj9wjgggwquz>uvc5quguugxqgpagz4jvzxMgvcjgssuw0ei;,%=s",
"kkv909+%wi0ju:egjkiiqqg,qlh<quguuavuuggazykmzvBgvcjuiijwwsw:*%=q",
"klv,09X+9wei980uixi9yuj,:qg<$q4uuhxuauguhylmzvBumxzsstssedw;*%,,",
"dlv9w0+%:0jwwe8igqq9<uw<:qw;+;;uihv5qugug4xvgcvwNggiwytdwew@*%9t",
"sbv0vi+&,ekg90rrwq<<*<<Oq<;o+;<aihvqgagaguzjhcvqmgwwwy,sed9%=%9i",
"wlz9h2<99jlj07rju<9994;.qo --<qgggl<gguugucghcz<kgiruq9kwei$,%9w",
"ijs:99i,9ixji9wkuu:9i99,<..;-<qwazc<wuuqu<cghcg<juirgutkssi*4*ww",
"9qw:0q9:%9jjk9wkuu9,gq<><;ooO><iihc;iuqu5<juhzg;kiissi9isdi,<@i9",
"99w<q9::@9wjm0slgqq,w<<,u;X.X;uiugc<iq<u<>huggq:xisssy7wwsg;9$09",
"0quqq9:0%77jm98xgqq,q4u;<<,;X;qi<jl<q9<<,>guggu;luwwiyydwjz>9%i,",
"0qwqwq79%00fk9ekguq>*,y><,i:OO<q<gg,w<;<,$u<agw;luiisi999kz:,$,,",
"0we9qq09%w0wkyjkq<<<-;q;qq5<oo;q<gg;q<-;>>u9ugq;vwujji=%,kh%,$&,",
"qwwqqw<q:w:wjjjgq<;g-;i;q<-;;;<,-gj;g;O<;<9;uuq;liijiy=%0Mg%,%:%",
"irrqqg997e7rjckggq<;o,qoww9<<::;;:w,i<,q,::%qi9;kijzs0=,kmq%%%*:",
"rwgiqw999j9ijjkwrq<+;,qowrw9q:::;;0,iqqw<9$;q9w;xizkiw9ijx7%%$$9",
"rggquwq<wd9wkijijw9*,*w+wlwqq7:<;:w:iuqi99%:9qq;kgzkw0ys0d7o%%*q",
"grq0gg9q0s90j9qeji:;:>0@qlwqw77<%<w;rw<0::;%>9q;zigjf979007%&%*q",
"ikq7gq>,wi&8p%9wrg:;,79%rrqqw:8;o:7%uw<7,%%%;:7;lwyu09=%90&7&%%<",
"irq:89@;wd&7i0e0ii,kw:9%qrq78:o;%:<;ww<9:%:@%:7;lwqq07%%08&&7+*,",
"wkq&w7X%90&&07eejg9i;,0@wr<q70&9&o7:wuq9&:9%;7q;jwqww0%&88%&%+&9",
"sj9:j9X%&87&07wejwq>%0w+wrq97:r9%%:;wwqq70:@:9q;lwqww0%788&%+@&i",
"ei99m4Xo:8&7079egwq;@7qowl07q:w&;%:;wwqq:0;%799;lwuwwq%9jw,%@@,0",
"ws996#*7::&8w09egqw@+<9owrq<q:&;;%9:wqqwq7%%990;luggrw&0ee,o%@*w",
"es9:*3a999%8ee0jiqw@$:q+wrw90,;:&&0,uwqw9q%&9qw;lsisdy7wee9o&@%e",
"ww9&9ih,90&8k87ejqw@9%0@qkrq09:9&&w,iwqg,9%;q9u@luggs09see9o&%&j",
"jw:&099909&ene7rjwu@0%0+wriwq9&,&&w:ggqg,9>:99y;cujgj00s000%:%:j",
"kjq:i999w0&0kwqkjrgO990+wlgww9%;,9w9wuuu9<*>ttw%xwjjdwsi0s9%9=9j",
"jki7sw99ws7ek0wjjjqO99w+qrgwq<%;;9q,wjiwqu>>qyq;lgjjk0si90979%,s",
"kkw:eei<ww9rmsjjgj<@w:e@wlgwqq;:9,w:uugqwq,:<qg;j<jzjtjs90999%=w",
"dkw:wejqws9dbdjuuu<;w;e@wlggqq;:99w,giugyh,<tij>zuzzjtjb0s9&9*uy",
"sk9:9eswskeenkjwqr<7r:w@qljgq9<<q,w,gggiug,yuij>ziizd9ek9i0,9*fi",
"jjq:qrjiis0sljliqw<qn,qouvzawi<999u,jgggai<iiig,vhzzsttm&iw,9@9f",
"grw<wlrrii9kmkluqi<qlqq;qvciqu<9q9w,hjkuig,iuij<vghzhttb9xw;*%=t",
"gjq7jjhji,,jmkxgui9qkqqoglciyh<:9q9;jjgiii<upiz9msavzutksby%$%tf",
"geqqjiwgyt,kmkkjqw0<r:0-qlzuqq<:>,q,giuuqy=tyii<vizzdy7sdj,@*%2y",
"www9jiwwq9:wke8kkww@q;wo<rr<q<::;;w:uwwu9q%<qqq;xigjeq9swr7%=+=d",
"j0,9ju9wq9&ek89djggO8:8oqnrqw7::::w<iuqg,9%:,q9;zigss09s8w9o*%,d",
"ew9:kwqw99&8kw0eijqO:<qo<lwww7;:&:w:gw9q,9;:<qq;xukjsw9098:%&%=s",
"9w9:kuuu,7&<p&7wwgq$:<e;qlwwq77:%,0;wu,99>%%%,7;kuqgs99&9w&7&@%9",
"7w::wqq<%7&7y9e9iq<0q:woql<q8:;;%&9%ww<9:%:o@:0;kwqwd90980&77o%7",
",q,&80+%&7&&09eeiw;q:,0;qlq7<qo:%%7%uwq7,:7o;:9;kwuwdwi908%%%o%7",
"0i,:w7+%&8&&078rrw,;;9qoqr9777e8;%::wwqq:97;:77;kwiij9s980&&o@%7",
"ww99l9X@&877079kiq<;;9qorrq77<r;&%:%uwwq<7;;799;luiisidwsw;%@@%0",
"we9wz2$%77&7099eguq%X<qowlq<9=,%;&9;wwqq97%;770;lwujstkeee&%%@%9",
"ew992#u77&&7ee9jwqw@@:9owrw9w,&:&%q:uqqq99;;9qq%lgqwstwe8e:o%@%w",
"we9;,ah,90&8re9rjqw$;;w+wri009:,&&w,iwww<9%:qqq;lwgwd99ewr9%;$%j",
"is990quq00&eb8:rjww$0%w+qjrq09&,&,w:uiyg:9;:<9q;cguwktik0e9@&%:r",
"jsw9e,99w9&8bw9kjrwOq:0+qlrqw9%=;,w:guwu99**<q0;lugwjyix0i9&9%,d",
"qjw9s9900i98kiikjjuO990owkjwq,*&:9q,wsuiq4:>9qw;luujdi9sss9&9&=y",
"fji9ke9,is9ekzxjwjqOq7e@qkruy<%::9w,uwuw:>::tyi;lygjjt7s00909%,t",
"hxk9ki9w9iidmvljgj<%w:w@qlguqq:,99w,gwqw%**<tuh;hujjsy0d0i9&,*4u",
"wjj0kjiu:ddekzkjwj9,e&w@qlgg<q::9<w:hqwx%@:yugj;jggzii0t9s9&,==y",
"eiuwnkjy9jjjk9rsgk<qk9w+ulzgwq<<99i:gqkp$%>uuug,zggjit:%9ww&===s",
"jewwbkzy9wzjw:iiuj9qn0q$ivcgqg<<9<q:jqq#3u,iugg<vggwi9%&8ww=%,=w",
"0wurvkk9%9jji89iwjqql0y%ivciug<<9qu,zq,<hg,uugzqvgjwsw%=edw*@,*:",
"99usljs9@=fjdewiqj<gl0u*gcch4jt,,qq,hu09uu<iiaxqvudis0%tjw0,*,;%",
"09isxww0%7ixi8krrjqjjqi;gvcu*zt,:qu>zuw0,q<jaaxgmisise=ykey,4t%=",
"0qiiksi9%7wi09ejwjwjlig;gccauht4,yu,lgwi90ugfzmuvjdyii=ydew<4,;%",
"wwijmhjq*ye00,ejgzwljgi:glvpigi>3ai,zurjw,ujiivgNgis9s90sw9,*=&;",
"wrqjzpzy70wie9ejwjqvkig,gvcaggu*phu<zigiiqwhggMwmgisti9sdwy,>=*=",
"0iwjcpuy9ewjr0ejwgqmjqg<hlzpufi4ihh<hgjjgiqhgzVhvgjs9s0090i=>*+9",
"wiilv3a99seke:ejijylhujqwzzapsithzzqhghzhyyahhvkvijstwy==ww==@+w",
"rwgjzaz90swkk9jkuggjwuh<qccuisziiuhqhgghh4uzzhxhmjjiisi998i==@*i"
};
