/* XPM */
static char *_60c53104af44dbdd08a99e249b9d75dHXMx6UZLa2VH4yK8[] = {
/* columns rows colors chars-per-pixel */
"64 64 154 2 ",
"   c #CB7500",
".  c #CD7C00",
"X  c #CF8205",
"o  c #D18504",
"O  c #D58906",
"+  c #DB8D04",
"@  c #D1860C",
"#  c #D88E0D",
"$  c #DB920B",
"%  c #DE9B0C",
"&  c #D18711",
"*  c #D38B1B",
"=  c #DB9214",
"-  c #DD9E14",
";  c #D4901B",
":  c #DC961A",
">  c #DC9B1B",
",  c #E08F03",
"<  c #E09C03",
"1  c #E1950A",
"2  c #E19414",
"3  c #E39E17",
"4  c #DFA014",
"5  c #E2A315",
"6  c #E2A21D",
"7  c #E5A91D",
"8  c #D69423",
"9  c #DB9522",
"0  c #DE9C22",
"q  c #D7982B",
"w  c #DD9B2B",
"e  c #DB9E36",
"r  c #E09627",
"t  c #E09B25",
"y  c #E99E24",
"u  c #E29D2C",
"i  c #DFA526",
"p  c #DFA22D",
"a  c #DEA635",
"s  c #DEA834",
"d  c #DCA23C",
"f  c #DFA838",
"g  c #E1A123",
"h  c #E9A226",
"j  c #E5AA20",
"k  c #E2A32B",
"l  c #EAA42C",
"z  c #E6AD2F",
"x  c #E1A332",
"c  c #EBA631",
"v  c #E3A934",
"b  c #E1A53A",
"n  c #E3AC3C",
"m  c #E8AE3A",
"M  c #EBB732",
"N  c #E7B03D",
"B  c #E9B53D",
"V  c #ECB93A",
"C  c #DEA642",
"Z  c #E4AE43",
"A  c #EAAE41",
"S  c #E3AD4B",
"D  c #E5B144",
"F  c #E9B444",
"G  c #ECBB45",
"H  c #E6B44C",
"J  c #E9B549",
"K  c #EBBA4D",
"L  c #F4B94D",
"P  c #E6B452",
"I  c #E8B554",
"U  c #E6B956",
"Y  c #EABB53",
"T  c #E7B75D",
"R  c #E6B95D",
"E  c #EABD5B",
"W  c #F2BA53",
"Q  c #E7BC60",
"!  c #EABE63",
"~  c #F2BC65",
"^  c #EEC14E",
"/  c #F1C14D",
"(  c #EFC356",
")  c #ECC15E",
"_  c #F1C25F",
"`  c #ECC264",
"'  c #EDC56B",
"]  c #EFC96F",
"[  c #F1C564",
"{  c #F8C664",
"}  c #F0C865",
"|  c #F1C76C",
" . c #F3CA6E",
".. c #F9CC6E",
"X. c #EDC773",
"o. c #EFCA73",
"O. c #EECD7B",
"+. c #F6C776",
"@. c #F2CC74",
"#. c #F9CD73",
"$. c #F2CE7A",
"%. c #F2CD7C",
"&. c #F3CF7F",
"*. c #F4CF7D",
"=. c #F7CF7C",
"-. c #F8CE78",
";. c #F9CF79",
":. c #EFD07B",
">. c #F4D076",
",. c #F7D076",
"<. c #FAD076",
"1. c #F5D178",
"2. c #F7D178",
"3. c #F4D07A",
"4. c #F6D07B",
"5. c #F1D17D",
"6. c #F2D27F",
"7. c #F4D17C",
"8. c #F5D17D",
"9. c #F6D07C",
"0. c #F9D17B",
"q. c #FBD27D",
"w. c #EECE81",
"e. c #F1CF81",
"r. c #EDD082",
"t. c #EDD185",
"y. c #EFD48D",
"u. c #F3D180",
"i. c #F3D383",
"p. c #F5D282",
"a. c #F3D585",
"s. c #F4D586",
"d. c #F6D687",
"f. c #F8D180",
"g. c #F8D581",
"h. c #FAD583",
"j. c #F3D68B",
"k. c #F5D788",
"l. c #F2D58D",
"z. c #F5D88B",
"x. c #F4D88C",
"c. c #F5D98C",
"v. c #F8D88A",
"b. c #F8DA8C",
"n. c #FBDA8C",
"m. c #F1D690",
"M. c #F1D892",
"N. c #F5DA93",
"B. c #F7DB94",
"V. c #F5DC94",
"C. c #FCDE95",
"Z. c #F7DC9D",
"A. c #FADF9D",
"S. c #F5E3AA",
/* pixels */
"@.$.@.O.$.$.@.@.@.@.@.@.@.@.@.@.@.@.@.@.@.@.#.@.@.s.$.R 8 + ` 5.@.@.@.$.' o # @.@.0.@.g Y @.@.@.@.@.@.$.$.&.@.@.#.#.#.#.0.p.=.#.",
"@.-.$.` V ) *.@.@.$.$.@.@.$.$.$.$.$.@.@.@.@.#.-.@.z.B.@.J U &.5.$.$.@.@.9.Y H $.@.@.k.' X.@.@.$.@.$.$.$.$.&.$.@.#.#.#.#.l 2 | @.",
"-.$.d.[ 3 5 $.$.*.2.@.$.$.$.$.$.&.&.&.$.&.@.$.$.@.,.d.i.5.&.$.&.$.*.@.#.<.d.9.5.&.@.@.2.&.2.5.=.$.$.$.@.@.$.$.o.#.#.#.q.W h | @.",
"$.2.b.A. .Y $.$.@.@.$.e.&.$.$.=.$.$.$.&.&.$.$.$.&.@.,.@.@.@.$.$.$.-.@.@.@. .$.$.5.3.$.e.$.$.&.$.2.$.$.&.$.$.$.$.$.*.$.$.p.e.$.&.",
"$.2.g.d.v./  .:.2.@.$.5.$.$.$.9.5.i.$.$.$.$.$.$.$.$.$.O.o.3.$.@.$.$.$.-.s./  .&.2.=.3.3.&.&.5.e.O.$.$.$.O.3.&.O.&.$.&.$.$.&.&.$.",
"=.2.0.9.k.2.2.*.*.@.p.9.&.$.$.i.U v ' O.o.O.&.$.$.&.&.$.$.e.&.:.$.@.$.2.d.d.$.@.$.$.5.9.5.9.=.i.K > ` O.o.o.$.$.@.&.$.&.=.&.&.$.",
"-.=.$.9.*.*.0.@.@.2.Y  .&.$.$.s.O.i Y &.o.E X.&.$.3.&.$.$.$.$.2.$.$.$.*.2.*.$.@.@.5.F ' p.$.$.k.y.D ) $.O.E ] &.&.&.$.&.&.$.$.$.",
"e.$.-.9.*.*.@.#.@.5.` | &.$.$.p.V.O.O.o.N.o.' e.$.o.$.&.&.&.O.@.9.=.$.2.*.*.>.$.@.5.-.@.&.$.$.5.l.5.O.o.N.t.] &.&.o.O.&.$.=.*.@.",
"E o.@.@.*.$.@.@.o.@.p.&.$.$.$.5.5.$.@.O.z.m.@.&.&.$.$.$.&.&.&.@.o.$.$.$.9.>.@.@.@.@.:.e.&.&.O.&.$.$.@.:.i.t.@.&.O.&.&.%.&.w.$.@.",
"6 J $. .@.@.,.@.@.@.$.@.$.$.$.&.&.$.$.` n R $.O.$.O.&.&.O.e.$.&.$.e.&.9.2.,.@.o.@.@.&.@.@.@.@.@.&.e.5.U : H O.$.@.&.&.&.@.&.&.*.",
"9.o.@.@.*.<.@.@.@.@.&.@.$.$.&.2.&.$.i.Q O s i.r.&.&.$.&.O.O.&.&.&.$.$.2.-.@.@.@.@.@.@.@.@.o.o.&.&.$.5.] 9 D t.t.e.&.O.O.O.) @.s.",
"@.@.*.2.@.,.O.o.@.@.@.$.$.$.w.i.O.&.5.x.3.o.' P X.&.$.&.O.6 ) e.$.e.$.=.$.O.! X.o.@.@.$.@.@.e.e.&.O.:.j.s.3.R a ! e.@.&.5.6 Y p.",
"@.-.<.@.9.R @ S &.o.@.$.@.$.o.D ` O.O.:.O.i.Q * a &.O.@.s.' } 5.$.$.$.@.9.P   Z 5.@.@.$.@.@.o.a P O.O.:.$.s.X.q a 5.O.,.i.:.o.O.",
"@.-.,.-.,.[ w P @.@.@.O.$.$.i.d s r.w.O.@.s.S.' U O.$.o.o.i.:.o.=.=.2.<.<.@.P ` o.@.@.O.o.@.j.H Z r.r.O.o.s.S.O.` O.@.o.@.$.@.@.",
"@.-.<.-.,.2.2.o.O.o.@.@.O.@.N.i.X.O.O.O.O.O.s.t.O.@.o.o.@.$.@.&.&.*.-.#...,.[ ) o.o.@.$.@.@.j.j.O.O.O.O.O.@.i.t.O.o.@.o.o.O.@.@.",
",.-.<.@.,.{ h > E $.@.$.@.@.$.:.:.@.3.i.r.o.O.&.@.o.o.@.@.@.$.2.*.2.-.@.<...h = H $.@.o.@.@.@.o.o.@.2.:.r.o.@.$.o.@.o.o.@.@.@.@.",
"@.3.#.#.,.g.~ r k &.@.@.@.@.$.o.@.$.P n _ 3.O.5.O.o.o.o.@.$.3.$.&.2.#.#.#.n.-.x k O.@.@.] @.>.@.&.' d 0 G o.$.i.$.o.o.@.@.@.>.>.",
"@.$.#.#.#.n.C._ Y @.@.O.$.o.@.&.@.b & & 1 ` O.Y ` o.o.o.@.@.o.>.-.-.&.@...b.C.| [ @.O.o.@.@.@.2.o.a @ & + ) o.d K O.o.@. .@.@.@.",
"$.@.#.....<.h.<.@.5.5.o.@.@.@.O.o.H e * O R Q X > o.o.o.O.3.o.3.$.-.*.#.#...<.,.@.$.5.@. .@. .5.@.! C * O ` R @ ; o.o.o.:.:.] :.",
"@.*...@.........@.K Y 3.o.@.o.2.z.p.R 9 > O.e.Z N o.] ] ` ' o.3.$.$.-.-.#... ...@.F N :. .] @.>.B.k.! k v O.s.E Y o.] o.Y Y @.o.",
"| $.$.@. ... . .2.Y v O.@.o.o.@.k.V.$.` ] @.s.&.:.o.] ,.z % o.$.9.2.=.&. ...@. .$.| F o.@.] @.@.d.x.:.o.O.o.3.9.:.o. .:.N % ] o.",
"Y X.&.$.@.@. .#.@.s.2. .o. .@.@.,.9.5.O.@.@.@.o.@.o. .5.t.Y o.3.$.$.:.2.@... ...#.p.&. . .]  .o.-.@.$.2.@.@.@.@.@.:. .,.j.` ] r.",
"w.@.e.&.o.=.@. ...@.@.]  .@.o.@.@.@.$.@.@.@.@.@.>.@.] >.( ^ 5.$.$.=.=.i.@.@.@. . .@.o.@.@.@.#.@.@.@.,.$.@.@.@.@.@.o. .3.G M :.N.",
"@.O.@.$.e.@.#. ...@.@.@.@. .@.@.o.$.O.@.@.@.$.$.@.@.@.3. .( 3.5.' F e.e.3.,. ...@.@.@.....@.@.@.@.@.@.*.$.O.&.$.$.@.] >.5.} >.o.",
"P O.$.&.$.#.#.#.@.#.#.@.$.#.@.@.@.@.o.$.@.e.O.@.@.@.@.$.i.5.@.@.9.@.@.e.$.@.#.,.@...@.@. .] o.@.@.@.o.$.@.&.! ] @.o.o.>.:.k.Z O ",
"' &.$.$.@.#.#.#.@. .@. .@.@.X.@.@.,.@.@.=.! O p &.o.@.$.3.$.@.@.$.5.$.-.@.@...@.*...#.] o.$.@.o. .@.*.@.5.R . 0 $.o.o.3.$.5.o.D ",
"@.@.#.#.#.#.#.[ ` @. .@.@.! o.o.o.@.o.@.@.` # v o.o.@.@.$.o.@.@.-.@.-.#.@.-.@.[ E @. .@.X.H ' X.o.@.@.@.*.@.k H o.o.o.@.$.5.s.s.",
"o.@.@.#.#.#.-.p.Y @. .@.! : Z @.o.@.$.@.@.s.5.@.@.@.@.@.@.>.o.@.@.#.#.#.#.#.#.x.E @. .@.@.> v @. .@.#.@.@.*.d.$.o.@.@.o.@.o.5.O.",
"o.#.#. .#.@.&.B.$.#.@.@.k.! H @.@.@.@.@.@.@.&.@.@.@.@.@.o.` o.$.=.#.#.#.#.-.h.C.&.@.@. .x.] E o.,.@.>.@.$.@.@.@.@.@.@.@.o.@.O.$.",
"X.#.#.]  .@.~ E @.@.@.@.-.$.@.X.o.@.@.@.@.@.@.@.@.o.@.,.8 . ' $.&.-.#.#.#.#.W m +.@. . .@.$.@. .@. .@.@.@.$.@.@.o.&.d.e.@.o.@.$.",
"@. .@.@.#.-.y , [ @.@.&.@.@. .@. .@.@.@.@.@.@.@.@.@.-.,.' T o.@.@.@.@.#.#.-.c , [ @.@.$.@.X.o.@.@.@.@.@.@.@.@.@.$.] z G @.@.@.o.",
"| @.@.#.#.-.#.W @.+.@.Z U @.@.@.$.@.@.@.@.@.o.@.2.,.@.<.#.Y ' @.] @.=.#.#.0.-. .@.+.@.H ! o.o. .@.@.@.3.$.@.@.@.p.@.k < ] @.@.@.",
"@.@.@.p.i.p.5.i.=.2.l.Z i O.@.' ` &.@.o. .o.@.&.0.#.#.<.L 2 > ` o.o.@.&.i.9.-.@.@.9.@.k g o.@.@.@.@.@.&.@.@.@.@.$.Z.2.) o.@.@.@.",
"-.$.9.Y 5 K &.@.:.*.B.s.o.o.5.y.) &.$.o.o.@.@.2.<.<...q.n.~ 9 E @.@.5.Y 5 Y &.&.9.2.x.e.E o.@.*.@.@.@.@.@.$.&.@.@.p.,.h ` $.o.@.",
"@.2.x. .g 7 &.$.9.5.p.5.$.3.&.l.O.O.$.o.o.@.$.2.-.#.#.<.C.g._ @.@.&.z.#.g j &.$.*.3.*.$.$.*.$.$.$.$.&.@.$.@.&.@.@.-.5.Y ) 5.@.@.",
"=.2.k.A.@.[ $.$.&.9.&.p.2.p.p.$.$.O.*.@.@.$.3.&.#.#.#...<.<.@.@.&.@.v.A.,.) $.$.@.*.*.$.$.9.$.=.*.$.&.&.$.$.$.$.@.@.0.k.$.$.:.3.",
"2.2.0.f.g.^ #.O.3.3.3.&.p.&.p.p.O.O.&.o.@.$.&.&.5.$.$.$.@.-.@.$.&.2.,.s.s.^ @.$.2.3.$.5.*.*.=.&.@.&.$.O.*.2.$.$.$.$.$.$.$.$.&.&.",
"&.2.9.=.s.s.&.$.@.$.5.3.=.5.=.d.D > ' &.o.O.&.$.=.&.&.5.$.&.&.&.*.2.9.9.g.s.2.$.$.$.5.9.&.*.&.s.H > ' $.o.O.$.$.&.$.$.$.$.$.&.3.",
"f.0.9.p.*.2.@.$.@.$.F o.9.:.$.z.d.D ` $.O.U ] &.$.$.&.&.$.$.&.$.-.9.9.9.9.$.@.3.@.5.F X.2.$.2.x.i.D ` o.O.U o.&.$.$.$.$.$.$.$.$.",
"[ [ $.9.5.2.@.$.@.5.@.@.$.$.2.p.x.5.o.o.N.O.o.&.&.o.3.$.&.&.$.&.e.=.3.$.3.>.$.@.@.9.@.@.&.$.$.i.l.5.O.@.m.w.o.&.&.o.$.&.&.$.&.$.",
"&.Y 5.5.$.<.@.@.@.@.2.O.$.2.&.&.5.$.@.e.s.t.&.&.e.%.&.&.&.O.$.G m @.@.@.@.,.@.@.@.@.5.5.$.$.&.9.3.@.@.i.s.t.@.&.&.$.$.&.&.&.&.$.",
"V.9.E ` $.@.o.@.@.@.&.@.$.e.&.$.&.$.5.P : H e.o.&.@.&.$.&.e.$.@.B @.@.@.@.@.o.@.@.@.$.@.$.$.&.:.&.$.&.P = P e.O.@.&.&.&.O.i.&.=.",
"&.d.Z - o.@.>.o.@.@.@.3.$.e.&.i.$.$.5.` > H t.e.O.e.&.5.O.` O.p.5.]  .o.@.@.@.@.@.@.@.$.$.&.&.&.&.$.5.' > H t.w.w.&.$.w.O.` &.2.",
"$.x.l.` o.o.' o.@.o.$.o.$.$.w.O.O.&.5.x.s.5.U d ' i.@.:.o.5 ! $. .@.@.@.$.o.' @.@.@.$.@.$.$.r.r.&.O.:.l.d.O.R a ' &.@.$.o.5 ` i.",
"$.&.9.&.2.S   H 5.@.@.$.O.&.' a R w.O.$.$.s.' 8 n r.$.@.s.5.o.*.$.@.=.@.2.S   S 3.o.@.$.o.5.] w U w.O.O.&.i.' 8 n e.&.o.i.$.o.o.",
"@.,.2.#.,. .P ' @.o.$.o.@.:.s.Z H t.O.O.@.s.S.X.' O.@.o.@.:.@.-.#.=.2.#.<. .S ' o.@.@.$.$.5.y.Z H r.w.O.o.l.S.X.' O.$.$.@.O.3.@.",
"@.@.#.#.#.*.` ` o.@.@.@.$.@.x.s.O.o.O.:.O.$.t.t.$.o.o.o.o.@.@.9.$.#.$.#.@.<.[ ` o.o.@.$.@.@.x.s.o.O.O.:.O.@.i.i.O.o.O.$.>.o.o.@.",
"@.@.#.@.#.{ y = P &.O.$.@.@.@.O.o.:.$.:.O.o.O.@.o.o.@.o.o.,.-.@.0.$.$.#.<.{ y = Y $.O.@.$.@.O.@.o.$.$.3.w.o.O.@.O.o.@.$.:.o.@.$.",
"#.@.#. .<.n.+.u v 5.@.@.&.@.@.o.$.! e g W O.O.i.&.o.o.o.o.@.>.&.-.-.-.<.<.b.+.u v w.@.@.@.$.$.o.:.` e g / $.$.i.O.o.@.@.:.@.@.@.",
"@.#.#.#...n.C.{ [ @.@.@.O.@.@.&.] w & & $ ' ' a P @.o.o.o.o.,.2.$.*.-.....b.C.{ [ @.@.O.@.o.@.$.] w & & $ ` ' a Y O.o.@.@.o.] @.",
"@.@.#.@.....<.#.-.$.e.@.o.@.@.&.@.E d * + ' U X 0 O.o.] r.:.@.2.-.$.-.@.....#.-.@.&.&.o.o.@.@.*.@.E d * O ' P X 0 O. .o.:.O. .@.",
" .#.@.#.@. . ...@.N F O. .o.@.$.B.j.E 0 v 5.d.U ) o. .] K Y 3.o.@.-.<.#.@..... .@.m F O. .o.@.@.V.d.E w n w.j.Y R o.] o.K Y @.@.",
"$.$.-.@.#.@. . .2.` F :. .o.@.@.p.N.&.] O.@.p.5.o.o. .:.v 4 o.>.@.$.$.-.@. . . .2.[ F @.| @.@.@.d.B.3.] O.@.e.p.:.o.o.5.v - o.$.",
"$.*.-.#.@.@. .@.@.i.3. .o.]  .@.@.&.5.2.@.@.@.@.$.o. .9.s.` ] >.@.$.@.-.-.@...@.@.s.$.@.@.@.@.@.@.@.5.O.@.@.@.@.@.,.] 5.t.} o.3.",
"*.*.*.+...@... .@.@.] @.@.@.@.@.@.@.&.@.@.@.@.@.$.@.@.3.V V :.@.o.@.-.@.-.@.@.@.@.@. .@.@.@.@.@.@.@.@.@.@.@.@.@.@.o. .,.V V @.@.",
"J *.*.@.#.@.@.@.@.@.@.@.2.@.@.$.%.@.$.@.@.O.&.@.@.o.] 5.5.} >.] ] @.@.@.@.@.@.@.o.@.@.@.@.@.@.@.$.$.$.@.@.&.5.@.$.@. .5.3.} @.o.",
"@.@.@.@.#...@. . .o.o.@.o.o.@.@.@.@.@.@.@.$.! ] $.@.o.3.5.&.@.o.*.o.X.@.@.#.o.@.@.@.@.@.@.@.@.@.@.@.@.@.@.O.R o.O.@.o.>.:.5.@.3.",
"e.&.=.#.#.@. .@.@.@.@.@.o.$.o.o.| @.@.@.&.P . k :.o.o.2.$.$.$.' n ` o.@.@. . .@.@. .@.@.@.O.@.@.@.@.o.@.e.P . p $.o.@.$.3.@.@.$.",
"@.#.-.#.#.#.@.~ ( @.@.@.' H ' o.X.@.| @.$.] p U o.@.o.5.$.@.@.| 0 F @.@.#.#.@._ E @.@.@.' H ' @.@.@.@.@.$.| k Y o.o.@.:.@.@.@.@.",
"@.@.#.#.#. .-.x.) @. .@.' : Z O.@.@.@.@.#.p.p.@.o.o.$.@.@.@.@.=.o.' @.#.#.#.*.z.) @. .#.' : Z @.@.@.@.-.@.p.k.@.o.@.o.$.o.@.@.@.",
"@.@. .#.#.0.g.B.&.#.@. .B.' ) @.@.@.@.@.@.@.@.@.@.o.o.3.*.$.@.@.@.#.#.#.#.#.-.x.&.@.|  .v.' ! @.@.@.+.O.@.@.@.@.@.o.@.@.@. . .@.",
"+.#.#.#.#.-.L A @.@.| | #.@.@.]  .@.@.@.-.@.$.@.o.>.:.' E @.@.@.+.#.#.#.#.@.@.@.+.@.@. .@.@.@.| @.@.@.@.@.@.@.@.o.@.-.@.@. . .@.",
"@.#.#.#.#.#.y + | $.@.@.@.| | @.@.@.@.@.o.@.$.o.@.$.I * & 5 ' @.@.#.$.+.@.=.=.@.@.@.&.X.o.@.@.@.@.@.@.@.@.@.-.@.@.-.@...@.| K @.",
" .#.#.#.#.*.-.| @.+.@.@.@.@.@.@.@.&.@.2.@.@.@.o.$.@.n 8 * O H $.@.o.@.@.&.Q P &.@.$.Q n ' @.@.@.@.X.@.@.@.@.@.@.@.@.#.#.0.Z.o.#."
};
