/* XPM */
static char *result[] = {
/* columns rows colors chars-per-pixel */
"64 64 118 2 ",
"   c #31353E",
".  c #37393F",
"X  c #353A43",
"o  c #393D44",
"O  c #3F4147",
"+  c #3E424B",
"@  c #41454D",
"#  c #46494E",
"$  c #49494C",
"%  c #444952",
"&  c #4A4D53",
"*  c #4F5257",
"=  c #4E525B",
"-  c #555455",
";  c #54565B",
":  c #575A5F",
">  c #5A5B5E",
",  c #615F5C",
"<  c #63615F",
"1  c #68635D",
"2  c #4F5661",
"3  c #535760",
"4  c #545A63",
"5  c #5C5E63",
"6  c #595F69",
"7  c #605E62",
"8  c #5E6165",
"9  c #5D626A",
"0  c #596475",
"q  c #636365",
"w  c #6A6666",
"e  c #6B6A67",
"r  c #64656A",
"t  c #696769",
"y  c #66696D",
"u  c #6B6B6D",
"i  c #756C67",
"p  c #726E6C",
"a  c #72706E",
"s  c #7A726E",
"d  c #616672",
"f  c #656972",
"g  c #6C6E72",
"h  c #6A6E79",
"j  c #706F71",
"k  c #6E7175",
"l  c #6E737A",
"z  c #737374",
"x  c #797676",
"c  c #7C7977",
"v  c #74757A",
"b  c #787779",
"n  c #76797C",
"m  c #7B7B7C",
"M  c #807674",
"N  c #847B76",
"B  c #817E7D",
"V  c #7F807F",
"C  c #84817E",
"Z  c #89847F",
"A  c #6F7A88",
"S  c #737780",
"D  c #757A81",
"F  c #7C7E82",
"G  c #7B7F89",
"H  c #807F81",
"J  c #7E8184",
"K  c #7E838A",
"L  c #838384",
"P  c #898685",
"I  c #878887",
"U  c #8B8986",
"Y  c #84868A",
"T  c #888789",
"R  c #86898C",
"E  c #8B8B8C",
"W  c #958B85",
"Q  c #918E8D",
"!  c #8F908F",
"~  c #94918E",
"^  c #98948D",
"/  c #858991",
"(  c #8C8D91",
")  c #918F91",
"_  c #8E9194",
"`  c #8F9399",
"'  c #939394",
"]  c #999694",
"[  c #9A9996",
"{  c #939599",
"}  c #989799",
"|  c #96989C",
" . c #9B9B9B",
".. c #A19D96",
"X. c #A19E9B",
"o. c #9FA09C",
"O. c #A3A19E",
"+. c #A8A39F",
"@. c #9297A0",
"#. c #979BA2",
"$. c #9C9EA1",
"%. c #A09FA0",
"&. c #9EA1A4",
"*. c #9CA1A9",
"=. c #A3A3A3",
"-. c #A8A7A2",
";. c #ABA9A6",
":. c #A4A5A9",
">. c #A8A7A9",
",. c #A6A8AA",
"<. c #ACABAB",
"1. c #B1AFAB",
"2. c #B4B2AE",
"3. c #ACADB0",
"4. c #ADB1B5",
"5. c #B2B2B2",
"6. c #BCB7B4",
"7. c #C1BEBB",
/* pixels */
"E } %.Y %.H H g T %.g S D H f H v r ( %.H Q { ) $.)  .` } H ) H } ` S H *.H H h E  .H E x T ) n F Y ) %.Y U @.R  .' ) %.$.' E } ",
"} v S h ` $.#.H ` %.H ( ( d l ) f Y } v g { F n ` )  .%.%.z 7 ) ) g S S H *.} H _ =.R ) ( d h ( d T $.b u { b m } ) #.%.%.v 7 H ",
"#.H } _ T E  .H g 5.@.( E S H ( ' R L k Y R %.{ } } ) T H %.l H ) H @.` H @.} H l 4.` ( ( v H ( ` R H v Y R $.{ #.} E T H } z H ",
"D H ( D D ) E / ( D d E E / #.H E b h L ) %.:.) } S H ` } H } l S H ) H H H { H ( D f E E / } K E n v H ' %.:.) } S H ) } H } x ",
"d } S d ) H 4 j G v j Y d H } } n u g T R F z Y ) 5 H ` H v H H H } S d { H 6 S J l k L y L ' | S t j T R D z Y { 7 H ) H H H ` ",
"E / d D H H H b F n n ( j v 5 } ' { L T R I n  .S H } v 7 ; 7 T 3.` d G H H H S V v n ' k k 8 ' } } L L R R b  .S H } h 7 > t ) ",
") D H S S ) E D n q g ( Y T t X.=.( ' F v R k 6 7 F S 7 T ] Q ) #.H H S v { H H v r k R Y I y o.%.( ) G S T j 6 7 D H 7 H } ) H ",
"f H H / ` ` H E F E ,.( f j { ` E k R g G E E ( H b g 3 x ' s k H H H H ) #.H H J I ,._ y v | ` ( j ( g F E ( ( H S g : b ) s b ",
"V / R o.&.` { J ( &.| ` n R K y 8 z u L | ` ' K R ' ( E [ Q b z G / H %.&.| _ J ! &.o._ l R K y 9 z g L | _ _ Y H { ( ( } ) v j ",
"&.o._ ,.R ` -.` l E v m  .Y > k n I _ -.v 9 ` R F } ,.' ' u x L / #.} 5.R ` -.` l ! l V o.Y 8 k m L ( -.v 9 _ R H X.3.) ) j x B ",
"o.K J o.o._ J h ( R F E _ Y n v y J ,.' k k n $.F z U L z z m ~ T S H #.o._ J l _ E V K ~ L n v y J ,.[ l g m  .D x E H v z M B ",
"' V ! ,._ 9 f V ! _ ` ,.| k 8 E ! E ' ; 9 y e k z g : q z b W L 7 j ` >._ 9 f n _ ! ` ,.| k 8 R ! I ' ; 9 f y z z f , 7 j b U B ",
"( V n _ E ( J ! o.J J =.' _ v V k V n n u P ! ! L D r n L m U k b v D ' E _ J ! o.J J =.{ _ v m z J n m u I E _ Y D y x H B T j ",
"! I _ R I l ! ,.n n ! ] [ J E v L } m Y I ' L ! F = r b l g a P b b { I Y l ! ,.V v ! ' ' J ( m V ' n I E ] L E F = t x v g j b ",
"V V o.l > k y l > n E  .o.~ ! ! =.E q - k V l 9 g E ' ~ I n $.m T H } v : k u l : l I o.o.! ! E =.T q : k B k 9 f E ' Q L n } L ",
"v J V v n n I E V V J { K J ! J r z T z L P m 8 n L  .n ^ } R E L F J v n n I E V J J { Y I ! J y z I z L P n 8 m Y  .x ]  .R m ",
"J V l y v ' V I ' _ I 9 * r g n y E m z ~ y q L U [ R u z ~ E U J n l y l [ m E ' ( T 9 = y z v y E m z ' t q L T ] E u z _ E L ",
"! l ! V K o.o.! v V J n q m F J F n 7 ' E z F ' } E z E m m I E E V E V I  .} R n F J n q m n G m D 5 ' ) j H '  .( z U m c E m ",
"V V J 9 O 8 J J 9 k m =._ I ( J F F n z q u ] Q I b ' C E z m ~ m L J r o r I R r k m =.E E ( Y H F m z q u ] Q T b ' L ! z m } ",
"V = 9 > r a r n J Y L u v E r v U F 5 m Z m L E L ;.} P c J L n x : 8 > r p r k m J F g v E r z U n 8 c B B L ) L =.] L b L L m ",
"V o : k : y * > ' h 9 Q I G z Q ' E B +.] p m E E { L k z ( R I k 8 y k g j y z _ I L z P n t } ' J u =.] z g b E >.H z a L J b ",
"8 8 e V v 8 * V z 6 y <.q g T v L ' m > q B U z I n u ~  .D _ E ! ^ R V  .H Q L n ! _ E G E T g z n j Q T j v ) Y r L ) C m U b ",
"V I ! V J V a V / I m g @ U T z U k y x P U m u ' Y g m I E  .U L v n l { ) } F _ _ I ' ( h f Y g F  .L u ( j n ( R  .$.$.b m b ",
"V 5 = y K 9 k ! { k u m F X.m L L n  .] H q m [ E ( J u u ` E J P D ( K E ' ' F n 4.| ( ( f n { G ) ( g m E ) ( } } ) ' E E 7 u ",
"V V m V V E ! E l V L V L L : z ' ] k P P B Q p U v 5 n g d - m T R ) / F Y $.E K ` D R _ R ! D { F z F )  .<.{ } / T T E ) ' z ",
"V V ] V J o.I J > 8 z ^ ~ P W m m b t z E P b y U C e m T q z ~ n T G q Y ( 5 v K f y I v I &.} v u j E / ( L G ) 4 b #.` H E E ",
"! ! I n 9 a Z > 8 V 5.;.] Z U u g T E ' c m L U C z z  .Y v -.U T $.f F ) D h j V V J E y v g E ( R b L Y G v  .Y D } b 7 7 d ] ",
"' R n # y a e # x o.&.| I m n r m ] ' m z F ^ U Z z z B H Y ( L T D S h g ' ( F J r 9 _ J L 6 O.%.) E I G E z l 5 H T g H H H E ",
"J R ` V { E V ~ a E ~ I V R m ~ ] ~ U P ' m T ( T I ] E k L P L R / J Y T E Y L l x o._ v v Y }  .F ( v v T L g b S t = z X.M 7 ",
"V n n o.I J ! q > V I I ' ! ~ I n L c L F ) n B m E U F z P ' L V K R ' $.| ( L ! &.*.` y J | n f u v n | { { { ( H H H Q ) b 7 ",
"_ g I V J C x z R z o.! ~ I ~ c a U P m z z m P I E P m Y E E I I { _ 1.` _ O.( n _ J J { R 4 u v L m  .H l { S F $.%.' X.b z ) ",
"I ! I v 8 x z z ^ x L k 8 k v L E T E g m I Q E ' ' L E E L P P } J (  ._ | | J J E v J [ K z k u J :.-.g q T ,.H H %.) D j M v ",
"' U Y p k p q c ~ s e e E Y ( L | g y n E ~ ~ I E ' H H  .$.;.U h y ! :.&.9 9 l _ ! _ &.! v y I L L &.r g h r v k q , u z z L B ",
"U ` I P L Z U m C E I C E E ' z f { I m L J ' B ) ..5. .%.%.X.$.L n J  .J V I R | ! R <.| I r J L I m r 5 b C I J J r u m m ~ x ",
"R E U n C | L a q > z Q b q U - k C V r z y 0 q ' E x X.T n  .E n v Y ! | K R -.! l L | _ / E n u U V ` U } ' ( J 3 r b F v p u ",
"v U =.&.U z y . w w 1.^ - , - - r g I u e u > q j ' Q j b H H E L L  .n 8 y n J > n ~ } o.L R I ;.} q 8 v L u v k D I I l g Q L ",
"I [ E e c s 5 - I I Z C z p U z r = u a m L x ~ ' ) B E ) L ' H V V E l k z v V u m J  ._ ' ' E m k m r n P J : n E [ P ..' / L ",
"z ~ ' n q m J k L C J I -.;.z v ( ! | P F j p I ' %. .=.@.<.} L E J k k l ! L _ } R R l 6 r m v 8 I L a ~ b q z J E ' y x } E L ",
"B H ' :.E =.' ~ ' ~  .~ 5.-.{ >.G C E ' m p H S  .E U $.) ) ) R K z J k E o.I L F E L y : x v G n Y 8 U ~ y n }  .[ k C b m E m ",
"L E H U c I +.P Z W n x { (  .v c L m ` (  .$.,.H Q $.$.E U ) { I I ! n * k o._ u g n  .L L R L F v b I k u ~ I E n E P U b V ' ",
"Y } j B i w N N Q u p Q ' Q ~ E m J u P -.R Y F $.7.:.] ' >. .H ] g 9 ; * e u v g V V J J ' n v L F r e i n E ' L ~ } P P b m I ",
"L P C N B s i N 7 u B Q ] c ' P z U L X...) Y ) E ' L E 3.L ' b 8 + > v 8 y > y ` J v k m G 5 E ' J u +.[ b c L I ;.T v e _ J b ",
"m Q u ' ^  .} Q I U U B N b E U x I m m %. .} E #._ Q  .%.E ) L 8 # < z y y * q V 4 > 2.m v E m I ' U z z z P P E D b I ' J _ L ",
") L ] ' L L L U L U P v 3 T L L P m 8 m ) P H H $.L v I ) E ) ( g V ! K K y a I V V V K O c L z E J > r c U C 8 E L r P ' L } m ",
"; 8 y r T h y L | l u k u X.U F L y E Q H j x ) _ E K r g {  .L V y r r I l y L | l y k g +.E V P r ! ~ U v z ' ' E K r u {  .I ",
"m a r m L p E ` F F J B I P 4 n ( [ T ' B j Q H U m r n g D q x u y 9 V V a K _ J J V V L I : m E  .R ~ V u Q C U m 9 n k D r I ",
"L E [ m L O.I m q u x U E P B z I m q z E ' B 7 P c q b m : 5 L K U ^ V L o.E V 8 y z I ! I C z P F 8 z E ~ m q U c r z m : > r ",
"k V ' J v m ~ n 5 p ] -.] L W b p L B W L x n H P c z  .I b X.E V V ' V v V Q V 8 y o.+.^ Z U x u L B U Z z m C P m z  .I b o.J ",
"n _ n * : q e   y [ 4.o.~ n V 8 b Q ' T u L ~ W C u u U F n  .L I E v * : q e   u  .4.&.Q n J 5 v Q ' T u I ~ U C p u U m m  .F ",
"I Y _ r ^ E x E V ] ~ R J Y n Z ~ ] ( C E v Q E E L E Z n I I U I Y / y ~ ! z E c ~ ~ E F T c P ~ [ _ B U z U ' T I E P D T I F ",
"v J J | ! V I v - C E I E I U E P L M P U _ m L F U ~ E g L ' E R R J o.! V U z - L E E E I U Q T L N P E ' n I F T Q E u L E L ",
"I y J R R U m e V k ! ~ O.~ | c u U B L b n b L L E I k J ~ ' z u k J R I U V e J z E Q O.' ' x u P B H v n b C L E L k J ' ' E ",
"I I E v e z s b Q m ' F r k m C I E E k z B E I _ U P E L C P n J I I v y a z x ! c ] J y j m L P T ( z z m U U ' U P E L B P L ",
"q L E u y n q b ] a u q V m L L } v k k E ~ ' E ] ' n L  .~ X.=.} ! I g y c q x ^ a y 8 J m I L  .z g v Q ~ ' E ' ] x L  .' X.U ",
"m I Y F m s m m Z U C c ! ' _ m n J F m V U ~ C I ] <.~  .:.+.$._ E I J V a V V Z U C c ( ' ' m F K n F F I ~ C E ' <.~  .>.=.[ ",
"c ` I b P  .U c a a b E m y O.8 r ' P u L l A z  .{ E -.} I } $.L { Z n Z  .P c a p n E m e X.5 q ' L u P k A k  .' U :.} L  . .",
"U U  .{ P m z $ < - [ ^ q 1 - $ g z T u < q = > v U H H j H H } E P  .} P n b $ , ; ..^ 7 1 - $ g z E y 7 q = , b U C m z G L ] ",
"B ]  .L L z > O V Z +.P 7 , V p 5 4 f u c C u C E ] H b T B ) H L X.{ L I s : O B L O.U q , B k 5 4 g e N H j H E ' L n E N ( T ",
"E ] P q q p n f I C b m  . .n u Y b E B m m b [ ) } ] %.@.%.) T O. .P q q a v u L H b b [ [ m u L v Q B m B b ] ' ' ' =.{ =.' m ",
"$.E  .=.L  .( L ! E  .' 1.1.J o.Y Q ' ) m e u u  . .) $.` %.} ' | [ } :.L } _ L ( Q X.] 1.1.L  .K ~ ' E n w g f }  .~ &.( %.{ } ",
"F x L ) L Q X.] U ~ m C -._ &.Y c b Y #.T ) %.%.T N ' %.U H U %.#.c P ) L ' X.' U ~ H B ;.( $.R m c G #.T ) %.%.T H ' %.E P U ) ",
"#.>.b L x i W N U x a C E ~ } m M R j H } @./ ( ` 7.%.$.' %.%.) } %.n L s i W c U x s H E ' } F m E p L  .@./ ( ) 7.%.} ) =.%.B ",
"} H i c s p i U N y C  . .C C E z H v Q <.H E T } %.} T %.' ( @.) H p N s x i W B u c ] X.B H U b m z Q 1.H E T %.%.] ) X.' R ) ",
"E U b t T ( 7 B t ' ~ E E c m E T X.] X.%.%.%.@.) ) %.%.P T  .%.( H u u I E q m H ] [ ' T L x L  .P B %.} %.%.#.} X.' %.) T Q } "
};
