/* XPM */
static char *result[] = {
/* columns rows colors chars-per-pixel */
"64 64 215 2 ",
"   c #0E0C09",
".  c #14110C",
"X  c #191A15",
"o  c #1D1D1A",
"O  c #171513",
"+  c #100E09",
"@  c #221C15",
"#  c #241F1A",
"$  c #2D1F17",
"%  c #25221C",
"&  c #2B241D",
"*  c #2E281F",
"=  c #32261B",
"-  c #35291E",
";  c #1E2020",
":  c #242522",
">  c #2A2621",
",  c #2C2A25",
"<  c #2D2D29",
"1  c #262825",
"2  c #322B24",
"3  c #3A2E24",
"4  c #322F2A",
"5  c #2E312B",
"6  c #3B3126",
"7  c #34322C",
"8  c #3C342C",
"9  c #37362B",
"0  c #353532",
"q  c #393630",
"w  c #3D3A34",
"e  c #3E3D3A",
"r  c #363835",
"t  c #42362A",
"y  c #44392D",
"u  c #493B2E",
"i  c #453627",
"p  c #433C34",
"a  c #493E33",
"s  c #433E39",
"d  c #3D423B",
"f  c #4D4235",
"g  c #44423C",
"h  c #4B443B",
"j  c #4C483E",
"k  c #474639",
"l  c #514334",
"z  c #51463B",
"x  c #544A3D",
"c  c #5B4B3C",
"v  c #5B4735",
"b  c #594B37",
"n  c #634D38",
"m  c #3B3F40",
"M  c #444441",
"N  c #494642",
"B  c #4C4A44",
"V  c #464B4A",
"C  c #4B4C4A",
"Z  c #474845",
"A  c #534C44",
"S  c #5A4E43",
"D  c #524E49",
"F  c #504740",
"G  c #4E5149",
"H  c #565045",
"J  c #5B5145",
"K  c #54514C",
"L  c #5B544B",
"P  c #5D594F",
"I  c #565848",
"U  c #4E5251",
"Y  c #535552",
"T  c #5A5752",
"R  c #555954",
"E  c #5C5A54",
"W  c #565A5A",
"Q  c #5C5C5A",
"!  c #4F4E50",
"~  c #604F40",
"^  c #635344",
"/  c #60554A",
"(  c #645A4C",
")  c #6D5D4E",
"_  c #695946",
"`  c #725E4B",
"'  c #635C54",
"]  c #6A5D52",
"[  c #625F5B",
"{  c #5E615C",
"}  c #72604B",
"|  c #666055",
" . c #6B6255",
".. c #64625C",
"X. c #6B655D",
"o. c #6E6A5D",
"O. c #72665A",
"+. c #746A5D",
"@. c #7A6B5C",
"#. c #726453",
"$. c #5A5D62",
"%. c #5E6262",
"&. c #5E6168",
"*. c #636563",
"=. c #6A6664",
"-. c #646966",
";. c #6C6A65",
":. c #616669",
">. c #656B6A",
",. c #6C6C6B",
"<. c #736C64",
"1. c #7A6E62",
"2. c #716E69",
"3. c #6B716C",
"4. c #7D7266",
"5. c #74726D",
"6. c #7B746B",
"7. c #78766B",
"8. c #696E73",
"9. c #6D7273",
"0. c #6F757A",
"q. c #757573",
"w. c #7B7671",
"e. c #757874",
"r. c #7D7A74",
"t. c #767A7A",
"y. c #7C7C7B",
"u. c #747578",
"i. c #826B55",
"p. c #86715D",
"a. c #837463",
"s. c #82766A",
"d. c #847A6D",
"f. c #8B7C6C",
"g. c #837C74",
"h. c #827E7B",
"j. c #867C73",
"k. c #7E807F",
"l. c #8A8175",
"z. c #84817C",
"x. c #8A837B",
"c. c #91857A",
"v. c #92897D",
"b. c #928575",
"n. c #91816F",
"m. c #7B7E81",
"M. c #747B85",
"N. c #757F95",
"B. c #7E8183",
"V. c #7B828B",
"C. c #788497",
"Z. c #848483",
"A. c #898683",
"S. c #8C8A85",
"D. c #848689",
"F. c #858A8C",
"G. c #8C8C8B",
"H. c #868886",
"J. c #928C84",
"K. c #928E8B",
"L. c #8E908D",
"P. c #93928D",
"I. c #9A9286",
"U. c #8C8E90",
"Y. c #878D91",
"T. c #8D9292",
"R. c #949494",
"E. c #9A9693",
"W. c #9B9995",
"Q. c #949699",
"!. c #96999C",
"~. c #9C9C9C",
"^. c #969897",
"/. c #A2988B",
"(. c #A29C94",
"). c #A29E9B",
"_. c #A2A19E",
"`. c #ABA59C",
"'. c #8D95A2",
"]. c #9C9EA2",
"[. c #969CA1",
"{. c #9EA1A3",
"}. c #9CA3AA",
"|. c #9CA9BC",
" X c #A3A4A3",
".X c #A3A6A9",
"XX c #A6A9AC",
"oX c #ABABAB",
"OX c #AAA7A4",
"+X c #B2AEA8",
"@X c #B2B0AE",
"#X c #ACAFB1",
"$X c #A4ADB8",
"%X c #AEB2B5",
"&X c #ACB3BB",
"*X c #B3B3B3",
"=X c #B3B6BA",
"-X c #B6B9BB",
";X c #BBBBBB",
":X c #B9B6B3",
">X c #9FA09C",
",X c #C3BEBC",
"<X c #C1C1BF",
"1X c #BCBEC0",
"2X c #B3BCC6",
"3X c #AEB9C6",
"4X c #BDC1C6",
"5X c #BCC3CA",
"6X c #C9CBCC",
"7X c #C4C5C5",
"8X c #C8CDD3",
"9X c #D1D3D5",
"0X c #CDD0D5",
"qX c #D7DCE1",
"wX c #DCE4EA",
/* pixels */
"%X#X#XW.K.=.g A =.!.Q.F ] <.=.<  .q.: 1 E R J.v.j.n.I./.K.g._./.x.E.D  .+.' B *.B.e P H k A  .o.w x I Q.oXg.B.y.M.8.e Q 6XU.[ D ",
"-XOX).R.<.T 2 3 =.' 2.=.) a.,., g ' 0 R ' R 7./.d.@.p.n.s.^ I.v.J.1.g.s.) I 8 2 j f u t x B +.6.p i k P.).x.Z.T X.' 9 w.=X[ , L ",
" X/ L [ D K # a ] F > w.A.O.8 s w w D T x ' <.r.l.+.d.2.+.h.OXOX5.H x.(.h 6 # i f 6 f f 6 l i 3 u 6 w W.w.K.7Xr.' 7 6 y % 9 h X.",
"2./ :X).K t F s N F > M g.F p t g S x ' a c ^ @.d.4.K l./.@XJ.L t S 4. .u y , c y 6 b 8 = =   = l - h ' ;.I.z.8 > h , % 2 #.7.Q ",
"C 5.*XI.2 $ 0 0 K 2 @ ] Y 2 8 > c ( l ( S ^ p.L ) ^ b } n./.+.( i ^ / 3 l a 2 l 6 l f y 3 - % - = =  .4.N B 2.,.^.' K y.h. X5.Z ",
"4 K ` a > s , F ' o $ L ! t = - ` a.L @.@.f.j.=...p.} _ f.} +.d.c +.y h f 3 a y b n i f f l l 6 . 8 K S <.2.y.S.' T :X=X7X Xe.,.",
"B =.u K.=.s N 2 s t = 4 u v ~ p v.J./ f.~ ~ / T d.f ( d.b.S +.f.d.o.h f l l l f 6 f i f b l y x % < k w ..[ K.T ..0XK._.7XQ.G.,.",
"2.g.K.I.1.A.Q 4 F s.p u ~ i.p./ =.`.I.s.' g.D A.d.j r.A.r.<./.v.A.( S h j S x a y y 6 k n b j y % + . d u.! ;., 5.OXy.oX7Xz.,.K ",
"x.J.f.#.q.h.0 g 3 ^ F a a ` i.p.' 4.I.<.A.q.;.OXo.z.*.R M S.K.J.J.L B A J f a f h x a H l.g x 8 + 7 2.Z.K.Q o g ~.E.6.R.OX[ ] w ",
"Z.c n ` 6.D e a.p t ^ ( / F j.OXd.[ (.@XX.[ J.*X<.h.r ..h.R.K.P.y.>.L A L x f  ./ O.<.' ' q k H < 2.z.g.D q.$.X h.2.6.Y z.d.p # ",
"a S =.OX..3 ^ b.a t N ] X.m K.f.a.[ ^.,Xq.2. X].;.M Q R.z.6.A.q.3.J.K  .X.j S <.' 5.7.B % 9 j 7.g *.W.q.> E <.Y Q.u.s q.x.7 q 2 ",
"[ E.y.;.w h A.Y 2 t Q q.' ; g.J.<.h.oX;XD.5.G.R.Y M G.7XE.2.R.,.,.;.L L ' L B A K r.G.z.q k B B N R G.;.! k.,.*.#X X$.%., 6 6 a ",
":XD.y.[ & O.l.f 2 h ;.S.s r 2.O.h 6.,X-X0.%.Y >.V T (.x.l.;.r.r. .(  .[ X.R <.;...W.S.I 9 j P ..X.g ;.R.-X X0 ..~.~.^.Z.C e q.P.",
"#.[ 1.( N ^ i u A K U.m.o 0 O.F c a.:XM.;.E < h E u @.] w.o.l.x.o.O.]  .X.2.W.Z.y.x.| 9 j X.2.L.' 4 <.oX*X< , q Q 6X,.e.G.*.y.' ",
"s S S f > 2 E R.u.s ..e O N a i 1.E ).m.d.3 < e F H #.s.c.v.o.4.1.4.<.g.E.*X Xx.~.[ t  .o.z.P.<XL.5 z.G.,.7 D > R R.w z.I.y., 3 ",
"> H h.B O o Q [ S B S 4 > $ = h.oX< 6.OX[.1 < d U q.p.@. .( P P.y.,.h.q.I.z.K.d.;XE <.v.7.L.@XOXR 7 ..3.N & ' D g w p P.x.h X & ",
"# Z.*XL . . s 2 7 w w , = 6 [ ^.m.Q h.;Xu.1 % d -.k.k.x.z.k.( o.B R B R q.h.5.W.P.' ~.Z.=.^.oX,.Q g g 3.g & A # @ @ ' G.p % O & ",
"* S.w.6 . # t 3 4 8 9 h = q..X0.Y.6X,XZ.4 q I *.-.o.k l.OXP.k.S.(.x.Z.!. XR.W ,.Z.h.h.2.2.q...w.A.<., D 7 9 B q 7 # h 7 < e s w ",
"B p , t 7 s 8 8 & 4 X 4 E (..X:.t.~.A.Y -.5.J.7.k x k.v.*X2XT.T.t.G.oXw.oXu.Q B. XOX..x 4.H...2.B.e.Z B w e ....N g g N ,.T.y.C ",
"Q 6 6 h t a 8 a < % 1 S <.j.N [ 9.>.E.%X%Xr. .I k.OX>X X>X}.3.-.V.{.6.^.~. X Xm. X#X5.D w.h./ +.r.E R E R w y.Z.*.9.g C Q &X9.*.",
"M p a @ 2 u S / B w a > $ a 5.:.V  X<XG.+.I { T.*X=X X%X$X8.G -.H.<.).;XU.XX]..XZ.R.B.5.=.;.S ' r.e.9.G.*.Z $.;.F.Q Z Y m.M.V :.",
"r 0 4 < a ;.Q Y q g K w.5.7 B G.y.e.@.X.R >.F.4XOXXX4X5X$X%.5 { s.).qX*XQ.].U.5.z.R.!.G.R.^.[ y.*.H.^.Q.q.N d ,.Q.,.Y e [.[.G.8.",
"< 4 w w h x.=.7 Q D. X1Xj.K w G.F.%.%X&XR U }.4XP.=X4X&XB.d W >.G.6XW.~.oX*X).K.z.R.%XT.].R.C :XX.B r.h y.G.w m.8.Q R w D.%X:.V ",
"q 7 J p p =.=.W Z._.Q.U.#X+XW.t.r.t.}.!.d G XXE.k.4X|.B.j -.T.3.Y.T.r.(.@X=XoXoXQ.oX.Xy.5.=.M H.h.6.2.4 e *.g r.%.{ ..>.B.E.;.Q ",
"S j _ ] K q 2 U.+Xc.h.L y.#X8.2.Q.|.N.$.7 V .X;X-X=X&Xq.j k.B.U T.T.G.~.R.#X_.!.m.,.Q ,.q.E *...A.Q M w , , J  .r.{ U t.&XH.S.5.",
"z y s <.h.T r K a.D s <.6XW ! ).'.C.&.d 4 8.&X=Xg. X%X7.k { d G }..XJ.q.^.y.XXG.R 4 G.U.D.q.K.m.V : g B r x | | k.5.Z F.8X}.>XP.",
"K = S L 1.s.B s O 4 q.].#Xw Q.#X&.%.Z e Q D.).g.' I.~.Y { ..X W {.F.;.=.x.a y.[ A.U.*X*XR.W.y.y.8.K k =.3.| 7.P.E.S.Z 9.4X5X^.5.",
"N 8 a H D.!.=.s q h Q.).S  .[ ' *.g ' %X2X(.y.[ S.T.>.U 3.{ 5 *.!.E g 2.=.;.2.5.Z.R.~.R.q.P.].k.0 4 5 *.-.Y ~.oXz.k.{ 9.5X~.-.{ ",
"y K M s =.h.T # 2 1.Q h.,.u.h.Z.G.S.W.wX^.y.D.!.8X[.m { E 3.R Q U.K =.E.g.g.K F =.y.*.Q *.h.Q C 1 1 7 M K K Z.U.;.5.R u.{.k.!.H.",
"1.J.2.N , Q [ ,.u.[ =.$XN.M.Q..X,.[ XX9X1X&X2X.XQ.Y.W ,.G e.W G G.G.E. XT <.A 3 D z.[ < 0 2.N < < # Z B 7 w 5...K ' C $.F.&.~.z.",
"h. X] y.=.0 E F.V D.'.C.Q ,.Q ,.q.,.Q.}.7X3X.XQ.! D.D.].o.K =.G.&X%X].Z.K 8.' p y.W.*.M D  XD o.e.m k.,.g < 1 0 K B t.U e ; Z ;.",
"u.~.y.*.F.D Y m.! W N.=.z S o.E Q W 9.{.0X.X.XXXF.D.C *.I.y.oX(.=X-XR.u.C Q E 2...K *.=.D.x.B ..*.G.P.E g R ;.4.(.W.`.4XQ.F.D.L.",
"J.W.P ' <.| B *.V.r P H k x ) #.9 x R {.oXh.h.y.V.8.w R 6XQ...K XX#X#XE.A.=.M F [ Q.Q.F O.] =.< T 5.; & T R W.v.j.b././.J.l. X(.",
"I.+.g.a. .J 8 2 j f u t x j +.k.a 6 f J.).A.Z.T .. .q e.=XQ > E ,X X).E.<.L 2 3 =.[ 2.2.) a.,.< s ' 0 W ' Y 4./.d.@.1.n.a.^ I.c.",
";.J x.(.f 6 # i l 6 f y 9 l 6 6 a 9 w W.w.K.<Xg.' 6 6 y & 9 f <.+XL L [ D ! # s ' F & w.A.O.3 s e e D / x ' 1.w.l.+.d.;.<.z. X_.",
"8 S 7. .u u , c t y l f - -   = l - z ' =.I.A.0 > h 2 % - O.7...2.T @X).L t F h B F & g h.F p t g S z ' a c ( +.d.4.L l.I.@XJ.P ",
"y ^ J 6 l a 2 l t l f u 6 - & - = =  .4.M A 2.;.Q.E H y.h. Xq.C F q.+XJ.2 & 0 0 H 2 @ ] T 4 8 2 c / l ( c ^ p.H ] ^ v ` n./.+._ ",
"c +.y l f 6 a y l c u y i l l 6 + 8 K H <.2.h.S.' E :X=X5X Xr.*.4 ! ` F > p < a [ o & D C t $ - ` 4./ @.@.f.c.=.X.p.} ` f.` <.d.",
"g.o.h h l f l f i f i f b l y x % 1 p w %.[ K.T [ 9XK. X7XQ.U.*.M <.u K.=.p F 4 s y 2 4 a v ~ a v.J.E f.S ~ ^ E 6.f ( d.x.S O.f.",
"v.( S h j H b y i t 6 f ( x j i % + O g q.Y ;.2 2.oXy.oX7Xh.2.N =.j.K.P.a.A.Q < F a.t p n i.p.L X.`.I.d.' g.D H.d.j 7.J.y.1./.v.",
"J.K B j J k a f l c p K l.g x w + 7 2.Z.R.Q o g ~.E.s.P.oX] ] e h.J.f.#.6.Z.0 s 3 ^ h z a ` i.p.Q 1./.<.A.w.=.`.+.l.%.R M G.K.J.",
"t.,.L H L x h  .L X.<.' ' q f I , 5.z.r.A q.[ X m.,.6.R Z.6.8 < Z.F n ` w.D w s.y y ^ ( H A j.+Xd.[ (.+X*.[ G.:X<.z.r { h.R.K.S.",
"9.L.H ) X.j H <.' 7.7.D % 7 j 6.g *.W.w., E 2.! Q.u.s q.x.8 7 p a F O.OX[ 2 ( c.a t z  .X.e J.f.a.%.^.<Xq.2. X~.>.M Q R.h.4.A.e.",
";.;.L L ' P j S H r.S.z.8 g j B Z R S.;.! k.,.*.#X X$.Q > 6 6 a ] E.m.<.p h x.! 3 7 Q q.Q : q.J.<.h.+X;XD.2.G.^.Y M G.7XW.2.R.q.",
"] L  .' o.K 2.;...W.H.L 9 k P ....g ;.T.;X.X0 [ ).~.Q.D.V s q.R.,XV.y.[ $ O.b.a 2 j ;.S.s e <.O.a q.,X1X0.$.Y >.V / ).j.j.;.w.d.",
" .+.]  . .5.^.A.y.z.| 4 j X.5.G.| 7 <.oX*X< & r E 6X,.y.G.*.k.( ] [ 1.] B ^ i u B K L.y.o 7 O.c c a.:XM.;.' < M ' u @.] w.=.j.h.",
"<.4.<.g.E.:X).x.>X..f  .o.z.P.7XL.5 z.G.,.7 S 1 Y R.w z.I.y.> 6 s S ~ a > 2 E R.q.e ..e X h h - 1.E ).y.w.6 < w B D #.s.c.J.<.a.",
"z.,.h.w.K.Z.K.d.;XI o.J.7.S.@XOXR 7 ..3.h * ' C M w p K.x.j X > 2 K h.B X o W [ D A J 7 % & 2 y.oX< s.OX[.1 < e Y q.p.@.#./ E K.",
"N T B R q.y.6.E.P.[ ~.Z.=.R.oX,.[ g g ;.g & x % @ @ ' S.w # X & # h.#XL . . p 2 4 p w 4 = 6 [ Q.m.W h.1X3., % d -.B.7.x.H.4.' <.",
"W.z.Z.~.{.Q.R ,.Z.h.h.<.2.w...w.Z.5., D 7 w Z 9 7 # h 9 4 e s 0 2 G.g.6 . # t 6 2 8 0 h 2 q..X0.U.6X<XZ.5 d I { -.o.j z.@XP.g.S.",
"e.G.oXq.oXq.Q B.{. X[ x 5.S.[ 2.y.q.B B w d ....N M g N ,.T.m.C B p 2 i 7 s 8 8 > 4 X 2 ' E..X:.y.~.A.K -.3.v.w.x I 7.J.%X3XQ.G.",
"F.{.6.^.~. X.Xm. X*Xq.D w.g.( <.r.Q R R E r r.D.*.5.d C $.=X8.*.[ 3 7 h t a 6 a 1 : : A <.j.F [ 8.>.E.*X%Xk.#.Y e.XX`.OX{.}.3.>.",
"F.<._.;XU.XX]..XZ.R.B.q.=.;.J P e.w.q.G.*.V ..-.U.W B U m.M.V :.V s s @ 2 t S P A p s > $ a q.:.V {.,XJ.O.H { T.*X&X{.*X$X8.G >.",
"a._.qX*XQ.{.U.2.z.R.!.G.R.W.[ y.;.Z.Q.Q.q.N d -.Q.,.R e !.[.U.>.r 4 4 2 h o.Q Y 9 M L w.6.7 N A.y.y.<.[ R >.F.;XOXXX4X5X#X&.5 { ",
"T.6X^.).oX*X).K.z.R.%XT.~.Q.C =X=.B r.g y.G.w k.8.Q R r D.%X-.M < 4 w s h x.*.7 W D.{.;Xj.K w G.D.&.=X3XY R }.4XR.-X3X%XF.5 R 3.",
"F.T.r.W.@X=XoXoX^.XX Xy.5.;.g A.g.7.2.4 s *.k k.$.{ *.-.B.R.<.Q w 6 H s p =.=.E Z._.R.R.#XoXE.m.w.t. XQ.M V XXE.k.5X|.k.G 3.T.3.",
"Y.R.G.).R.oX X!.y.,.Q >.q.R ..X.A.Q M w < > J  .r.*.U t.&XG.S.,.S F _ ) D 7 4 K.+Xc.h.L h.#X8.2.Q.|.N.$.4 C .X1X:X=X&X3.j B.k.R ",
"[..XG.w.W.y.oXG.R 7 G.U.Z.q.R.m.V ; g D q D ( | g.3.Z F.5X.X_.K.z 8 s <.h.' r ! 4.S s <.8XW ! ).'.N.:.g 5 8.%X=Xk.>X#Xe.k { M M ",
"[.D.;.=.z.g r.[ A.U.*X*X^.E.y.u.8.K g *.,.{ 7.P.W.H.Z 9.5X5XQ.w.E & S T 1.6.F g X 4 2.).#Xp '.#X$.&.M s Q F.).g.| I.~.R { -.X W ",
"R.[ s 1.=.;.2.q.H.R.~.R.w.R.].h.7 7 < *.;.Y ~.oXz.k.{ 0.6X!.*.*.N 3 a H D.~.=.s q M Q. XS ] ] ' -.m ' *X2XW.y.' x.T.>.U 3.{ 5 { ",
"D.L =.E.w.g.L B =.y.*.Q *.h.Q C < < 7 g K K Z.G.;.3.E q.[.m.!.A.t K N s =.m.T # , <.E h.,.q.h.Z.G.S.E.wXE.y.D.[.8X[.m { P -.I R ",
"B.G.E. XT <.A 3 S k.Q 4 0 2.N 4 < o Z B 4 w 5.*.K ' V { F.&.].g.1.J.2.B 1 Q Q 2.y...*.$XN.M.!.}.=.*.XX9X1X3X2X.XQ.Y.R ,.I k.R G ",
"$X%X].Z.K 9.E p h.W.-.M K ).D X.q.M y.3.d 4 , q K C t.Y m : Z <.h. X[ y.;.0 T U.V D.[.C.Q ;...,.q.,.Q.XX7X3X}.Q.Y D.Z.].;.I -.z.",
";X-X!.u.Y W L 5.[ C *.*.Z.S.D =...T.W.E g R *.4.(.W.`.1X!.F.B.S.u.W.h.-.F.C T u.M Q N.:.j H X.T ..W 8.[.0X.X.XXXF.B.G 3.J.k.@X>X"
};
